<svg width="42" height="41" viewBox="0 0 42 41" fill="none" xmlns="http://www.w3.org/2000/svg">
<path fill-rule="evenodd" clip-rule="evenodd" d="M20.7254 40.994C32.1717 40.994 41.4508 31.8171 41.4508 20.497C41.4508 9.17681 32.1717 0 20.7254 0C9.27908 0 0 9.17681 0 20.497C0 31.8171 9.27908 40.994 20.7254 40.994Z" fill="#25D366"/>
<path fill-rule="evenodd" clip-rule="evenodd" d="M21.4085 31.9006H21.4034C19.3408 31.8999 17.3141 31.3881 15.5141 30.417L8.98096 32.1119L10.7293 25.7962C9.65085 23.9477 9.08336 21.851 9.08428 19.7029C9.08699 12.9829 14.6155 7.51556 21.4084 7.51556C24.7052 7.51697 27.7995 8.78626 30.1262 11.0901C32.453 13.3938 33.7337 16.4559 33.7324 19.7125C33.7297 26.4311 28.2033 31.8978 21.4085 31.9006ZM15.8168 28.2106L16.1908 28.4301C17.7635 29.3531 19.5663 29.8415 21.4043 29.8422H21.4085C27.0542 29.8422 31.6493 25.2977 31.6516 19.7118C31.6526 17.005 30.5882 14.4598 28.6543 12.545C26.7203 10.6302 24.1485 9.57511 21.4125 9.57417C15.7624 9.57417 11.1673 14.1182 11.165 19.7036C11.1642 21.6178 11.7058 23.482 12.7312 25.0948L12.9747 25.4781L11.9399 29.2163L15.8168 28.2106ZM27.6174 22.6108C27.5404 22.4838 27.3352 22.4076 27.0272 22.2551C26.7193 22.1027 25.2053 21.366 24.923 21.2643C24.6408 21.1627 24.4354 21.1119 24.2302 21.4167C24.0249 21.7216 23.4348 22.4076 23.2552 22.6108C23.0755 22.814 22.8959 22.8395 22.5881 22.6871C22.2801 22.5346 21.2879 22.2131 20.1117 21.1755C19.1963 20.3679 18.5783 19.3707 18.3987 19.0658C18.219 18.7609 18.3795 18.5962 18.5337 18.4443C18.6722 18.3078 18.8416 18.0885 18.9956 17.9107C19.1495 17.733 19.2008 17.6059 19.3035 17.4028C19.4061 17.1994 19.3548 17.0216 19.2778 16.8692C19.2008 16.7167 18.585 15.2177 18.3284 14.6079C18.0784 14.0141 17.8246 14.0946 17.6356 14.0852C17.4562 14.0763 17.2506 14.0744 17.0454 14.0744C16.8401 14.0744 16.5065 14.1506 16.2242 14.4555C15.942 14.7604 15.1465 15.4972 15.1465 16.9961C15.1465 18.4951 16.2499 19.9432 16.4039 20.1464C16.5578 20.3498 18.5752 23.4257 21.6643 24.7449C22.399 25.0587 22.9725 25.246 23.4198 25.3864C24.1574 25.6182 24.8288 25.5855 25.3593 25.5071C25.9509 25.4197 27.1811 24.7704 27.4378 24.0591C27.6943 23.3476 27.6943 22.7378 27.6174 22.6108Z" fill="#FDFDFD"/>
</svg>